<?xml version="1.0" encoding="UTF-8"?><svg id="Layer_2" xmlns="http://www.w3.org/2000/svg" viewBox="0 0 323.85 70.81"><defs><style>.cls-1{fill:red;}</style></defs><g id="Layer_1-2"><g><g><path class="cls-1" d="m1.77,46.53c.61-1.07,1.3-1.61,2.22-1.61.54,0,1.15.15,1.84.54,3.14,1.69,6.13,2.6,9.04,2.6,5.06,0,8.43-2.76,8.43-6.97,0-4.67-4.29-6.43-9.19-8.43C7.89,30.14.77,27.31.77,17.58.77,8.46,7.13,2.03,18.47,2.03c4.98,0,8.73,1.23,11.26,2.37,1.76.84,2.3,2.22,1.46,4.14l-1.15,2.6c-.54,1.15-1.3,1.69-2.22,1.69-.54,0-1.15-.15-1.76-.46-2.15-1.07-4.9-1.99-7.58-1.99-4.83,0-7.2,3.06-7.2,6.36,0,4.52,4.29,6.28,9.12,8.27,6.21,2.53,13.41,5.44,13.41,15.09s-6.59,16.32-18.92,16.32c-5.59,0-9.88-1.46-13.18-3.22-1.76-.92-2.15-2.37-1.15-4.21l1.23-2.45Z"/><path class="cls-1" d="m34.28,20.96c0-1.92,1.01-2.95,2.89-2.95h3.54c1.88,0,2.89,1.03,2.89,2.95v31c0,1.92-1.01,2.95-2.89,2.95h-3.54c-1.88,0-2.89-1.03-2.89-2.95v-31Z"/><path class="cls-1" d="m55.04,51.43c0,1.98-1.06,3.04-3.04,3.04h-3.72c-1.98,0-3.04-1.06-3.04-3.04v-31.9c0-1.97,1.06-3.04,3.04-3.04h2.05c1.97,0,3.34.91,4.1,2.81l.61,1.52c2.2-3.42,5.7-4.71,9.72-4.71,4.63,0,8.66,1.6,10.94,5.92,3.04-4.41,7.14-5.92,11.62-5.92,7.06,0,12.84,3.8,12.84,15.27v20.05c0,1.98-1.06,3.04-3.04,3.04h-3.72c-1.97,0-3.04-1.06-3.04-3.04v-20.13c0-3.87-.46-7.37-5.62-7.37-3.95,0-7.14,4.1-7.14,9.11v18.38c0,1.98-1.06,3.04-3.04,3.04h-3.72c-1.97,0-3.04-1.06-3.04-3.04v-20.13c0-3.87-.46-7.37-5.62-7.37-3.95,0-7.14,4.1-7.14,9.11v18.38Z"/><path class="cls-1" d="m121.92,16.59c-4.12,0-7.58,1.69-10.01,4.77l-.59-1.54c-.74-1.93-2.06-2.85-3.97-2.85h-1.99c-1.91,0-2.94,1.08-2.94,3.08v47.68c0,2,1.03,3.07,2.94,3.07h3.61c1.91,0,2.94-1.07,2.94-3.07v-16.69c2.43,3.08,5.88,4.77,10.01,4.77,6.87,0,12.75-2.24,15.04-10.72v-18.04c-2.28-8.61-8.17-10.45-15.04-10.45Zm-.74,32.13c-5.91,0-9.79-4.86-9.79-12.11s3.88-12.1,9.79-12.1,9.79,4.86,9.79,12.1-3.88,12.11-9.79,12.11Z"/><path class="cls-1" d="m138.3,3.15c0-2.05.97-3.15,2.77-3.15h3.39c1.8,0,2.77,1.1,2.77,3.15v48.79c0,2.05-.97,3.15-2.77,3.15h-3.39c-1.8,0-2.77-1.1-2.77-3.15V3.15Z"/><path class="cls-1" d="m154,1.57c2.87,0,5.19,2.32,5.19,5.19s-2.32,5.19-5.19,5.19-5.19-2.32-5.19-5.19,2.32-5.19,5.19-5.19Z"/><path class="cls-1" d="m152.16,18.35h3.62c1.63,0,2.95,1.32,2.95,2.95v31c0,1.63-1.32,2.95-2.95,2.95h-3.62c-1.63,0-2.95-1.32-2.95-2.95v-31c0-1.63,1.32-2.95,2.95-2.95Z"/><path class="cls-1" d="m182.85,51.57c-1.18,3.12-5.14,4.84-9.41,4.84-6.03,0-12.57-3.28-12.57-12.03,0-12.26,12.64-13.27,19.99-13.27h1.76v-1.4c0-3.36-.74-6.68-6.44-6.76-5.49-.08-5.97.02-8.62,1.58-.66.39-1.2,1.13-1.69,1.28-.38.11-1.39-1.17-1.54-1.39l-.64-1.28c-.68-1.92.19-2.75,1.15-3.42,3.6-2.03,7.94-3.12,11.9-3.12,7.79,0,15.36,4.22,15.36,13.35v22.96c0,2.03-1.03,3.12-2.94,3.12h-1.76c-1.91,0-3.23-.94-3.97-2.89l-.59-1.56Zm-.92-14.66c-3.92,0-12.47.99-12.47,7.46,0,3.38,2.19,4.85,4.88,5.07,5.5.45,10.02-2.6,9.68-12.53h-2.09Z"/><path class="cls-1" d="m38.94,1.57c2.87,0,5.19,2.32,5.19,5.19s-2.32,5.19-5.19,5.19-5.19-2.32-5.19-5.19,2.32-5.19,5.19-5.19Z"/></g><g><path class="cls-1" d="m230.43,54.77h-10.32l-8.53-15.07h-2.75v15.07h-8.91V14.95h15.09c8.83,0,14.54,4.88,14.54,12.43,0,5.53-3.17,9.77-8.51,11.48l9.39,15.91Zm-9.65-1.15h7.63l-9.12-15.46.73-.2c5.25-1.41,8.38-5.36,8.38-10.58,0-6.85-5.25-11.28-13.39-11.28h-13.94v37.52h6.6v-15.07h4.57l8.53,15.07Zm-6.04-19.73h-7.06v-12.51h7.06c4.41,0,6.84,2.19,6.84,6.17s-2.43,6.34-6.84,6.34Zm-5.91-1.15h5.91c3.72,0,5.69-1.79,5.69-5.19s-1.91-5.02-5.69-5.02h-5.91v10.21Z"/><path class="cls-1" d="m246.65,55.27c-9.41,0-15.98-6.75-15.98-16.42s6.42-16.42,15.98-16.42,15.7,6.48,15.7,15.75c0,1.15-.08,2.15-.23,3.09l-.08.48h-22.28c.55,3.63,3.13,5.94,6.72,5.94,2.64,0,4.54-1.14,5.63-3.39l.16-.32h9.49l-.22.74c-1.91,6.51-7.62,10.55-14.9,10.55Zm0-31.69c-9.01,0-14.83,5.99-14.83,15.27s5.96,15.27,14.83,15.27c6.46,0,11.59-3.42,13.56-8.99h-7.22c-1.32,2.46-3.51,3.71-6.5,3.71-4.43,0-7.55-2.99-7.94-7.62l-.05-.62h22.57c.1-.74.14-1.53.14-2.42,0-8.74-5.85-14.6-14.55-14.6Zm7.68,12.96h-15.83l.1-.66c.62-4.3,3.69-7.09,7.83-7.09,4.53,0,7.77,2.94,7.89,7.15l.02.59Zm-14.47-1.15h13.26c-.37-3.23-3.04-5.44-6.7-5.44-3.37,0-5.83,2.07-6.57,5.44Z"/><path class="cls-1" d="m272.99,69.4h-8.91V22.93h8.91v3.4c2.34-2.47,5.8-3.9,9.56-3.9,8.59,0,14.59,6.71,14.59,16.31s-6.14,16.53-14.59,16.53c-4.8,0-7.9-2.22-9.56-3.91v18.04Zm-7.76-1.15h6.61v-20.14l1.03,1.37c1.06,1.4,4.11,4.65,9.68,4.65,7.79,0,13.44-6.47,13.44-15.38s-5.53-15.16-13.44-15.16c-3.99,0-7.61,1.75-9.67,4.69l-1.05,1.49v-5.68h-6.61v44.17Zm15.27-19.79c-4.31,0-8.66-3.3-8.66-9.61s4.36-9.6,8.66-9.6,8.72,2.97,8.72,9.49-4.39,9.72-8.72,9.72Zm0-18.06c-4.93,0-7.51,4.25-7.51,8.45s2.58,8.46,7.51,8.46c3.76,0,7.57-2.94,7.57-8.57s-3.92-8.34-7.57-8.34Z"/><path class="cls-1" d="m311.19,55.27c-7.74,0-13.62-4.51-13.98-10.74l-.04-.61h8.93l.06.51c.25,2.12,2.3,3.59,4.97,3.59,2.51,0,4.13-1.01,4.13-2.58,0-1.81-2.76-2.5-5.95-3.3-5.07-1.28-11.39-2.87-11.39-9.94,0-5.75,5.23-9.77,12.71-9.77s12.45,4.09,12.93,10.67l.04.62h-8.57l-.05-.52c-.2-2.17-1.91-3.47-4.58-3.47-1.14,0-3.8.23-3.8,2.36,0,1.78,2.25,2.46,5.92,3.41,4.98,1.29,11.17,2.9,11.31,9.93,0,5.8-5.2,9.84-12.65,9.84Zm-12.78-10.19c.67,5.28,5.93,9.04,12.78,9.04s11.5-3.49,11.5-8.68c-.12-6.14-5.61-7.57-10.45-8.82-3.64-.95-6.78-1.76-6.78-4.53,0-2.2,1.85-3.51,4.95-3.51s5.18,1.51,5.65,3.99h6.29c-.69-5.64-5.02-8.99-11.72-8.99s-11.56,3.55-11.56,8.62c0,6.17,5.59,7.58,10.52,8.82,3.66.92,6.82,1.72,6.82,4.42s-2.65,3.73-5.28,3.73c-3.07,0-5.47-1.66-6.02-4.1h-6.7Z"/></g></g></g></svg>