<svg id="Layer_4" xmlns="http://www.w3.org/2000/svg" width="214.666" height="70.68" viewBox="0 0 214.666 70.68">
  <path id="Path_345463" data-name="Path 345463" d="M49.533,52.118c.316,1.788.68,3.591,1.107,5.379a28.458,28.458,0,0,0,1.724,5.142A17.263,17.263,0,0,0,55.292,67.1a13.532,13.532,0,0,0,4.6,3.259,28.309,28.309,0,0,1-10.125-.522,12.2,12.2,0,0,1-5.616-3.164,10.651,10.651,0,0,1-2.595-4.651c-.443-1.724-.807-3.386-1.06-4.983-.316-1.788-.617-3.48-.918-5.094-.285-1.6-.617-3.117-.965-4.556s-.759-2.848-1.2-4.224a30.7,30.7,0,0,0-1.724-4.177,17.036,17.036,0,0,0-3.164-4.366,10.274,10.274,0,0,0-3.844-2.452,7.913,7.913,0,0,0-5.379.38,13.589,13.589,0,0,0-4.319,2.879q-1.827,1.827-3.749,3.844V62.8a8.5,8.5,0,0,0,4.509,7.578H0a10.812,10.812,0,0,0,4.082-3.939,10.59,10.59,0,0,0,1.582-5.664V9.783A10.629,10.629,0,0,0,4.082,4.119,10.812,10.812,0,0,0,0,.18H19.775A9.183,9.183,0,0,0,16.516,3.3a8.106,8.106,0,0,0-1.25,4.461V38.386L41.56,10.352a6,6,0,0,0,1.535-5.237A6.961,6.961,0,0,0,39.25.18H56.241a15.837,15.837,0,0,0-2.879,1.155A32.144,32.144,0,0,0,50.34,3.059,29.148,29.148,0,0,0,47.6,5.068a18.544,18.544,0,0,0-2.009,1.914l-24.569,26.1a12.772,12.772,0,0,1,4.556-2.357,17.229,17.229,0,0,1,5.284-.617,18.162,18.162,0,0,1,5.379,1.013,19.352,19.352,0,0,1,4.841,2.452,15.8,15.8,0,0,1,3.544,3.8,23.945,23.945,0,0,1,2.4,4.651,31.82,31.82,0,0,1,1.487,5.094c.348,1.724.68,3.386,1.013,4.983" transform="translate(0 0.105)" fill="#02254b"/>
  <path id="Path_345464" data-name="Path 345464" d="M39.32,70.359A10.812,10.812,0,0,0,43.4,66.42a10.59,10.59,0,0,0,1.582-5.664V9.783A10.629,10.629,0,0,0,43.4,4.119,10.812,10.812,0,0,0,39.32.18H60.25a10.812,10.812,0,0,0-4.082,3.939,10.629,10.629,0,0,0-1.582,5.664V60.756a10.59,10.59,0,0,0,1.582,5.664,10.812,10.812,0,0,0,4.082,3.939H39.32Z" transform="translate(22.886 0.105)" fill="#02254b"/>
  <path id="Path_345465" data-name="Path 345465" d="M60.764,32.121V9.783a10.629,10.629,0,0,0-1.582-5.664A10.812,10.812,0,0,0,55.1.18H75.935c1.788,0,3.053,0,3.8.047.728.032,1.361.047,1.867.047,1.724.063,3.544.174,5.426.332a47.817,47.817,0,0,1,5.521.775,32.158,32.158,0,0,1,5.094,1.44,19.92,19.92,0,0,1,4.319,2.262,19.5,19.5,0,0,1,3.892,3.844,14.327,14.327,0,0,1,2.009,3.7,13.3,13.3,0,0,1,.728,3.259c.063,1,.095,1.8.095,2.452a14.739,14.739,0,0,1-2.215,7.578q-2.207,3.749-7.578,6.328a23.5,23.5,0,0,1-6.913,1.962,52.986,52.986,0,0,1-8.258.427,31.4,31.4,0,0,1,9.508,2.4,21.468,21.468,0,0,1,6.091,4.034,16.144,16.144,0,0,1,3.544,4.983,26.611,26.611,0,0,1,1.772,5.284c.443,1.978.886,3.923,1.3,5.806A26.365,26.365,0,0,0,107.7,62.48a16.206,16.206,0,0,0,3.117,4.509,15.175,15.175,0,0,0,5.237,3.354q-7.973.664-12.2-.57a11.828,11.828,0,0,1-6.233-3.844,12.829,12.829,0,0,1-2.547-6.091c-.348-2.341-.7-4.809-1.012-7.436a45.238,45.238,0,0,0-1.535-6.866,14.494,14.494,0,0,0-2.974-5.284A15.718,15.718,0,0,0,84.273,36.5a32.122,32.122,0,0,0-8.258-2.262,32.306,32.306,0,0,0,10.758-1.677,19.37,19.37,0,0,0,6.676-3.939,12.876,12.876,0,0,0,3.4-5.142,16.19,16.19,0,0,0,.965-5.189A18.365,18.365,0,0,0,95.9,9.561Q91.392,1.4,81.6.829H74.97a3.076,3.076,0,0,0-1.819.617,5.693,5.693,0,0,0-1.487,1.629A8.467,8.467,0,0,0,70.7,5.29a9.165,9.165,0,0,0-.332,2.452V32.09" transform="translate(32.07 0.105)" fill="#02254b"/>
  <path id="Path_345466" data-name="Path 345466" d="M105.053,54.232a26.084,26.084,0,0,0-1.392,5.711,10.747,10.747,0,0,0,.332,4.224,8.021,8.021,0,0,0,2.057,3.354,21.653,21.653,0,0,0,3.8,2.927H95.26a13.132,13.132,0,0,0,4.177-4.6,40.286,40.286,0,0,0,2.737-5.854L125.6,0h2.31q5.672,14.594,9.555,24.569,3.892,9.991,6.439,16.516c1.693,4.351,3.006,7.72,3.939,10.078.933,2.373,1.6,4.113,2.009,5.237s.712,1.9.918,2.357c.38.9.823,1.883,1.3,2.974a24.336,24.336,0,0,0,1.724,3.212,21.155,21.155,0,0,0,2.357,3.069,12.047,12.047,0,0,0,3.069,2.452h-20.93a11.055,11.055,0,0,0,3.259-6.724,16.376,16.376,0,0,0-1.06-6.724.084.084,0,0,0-.095-.095L134.732,42.24H109.767l-4.7,11.992v0Zm17.181-43.965-12.2,31.293h24.379l-12.2-31.293Z" transform="translate(55.444)" fill="#02254b"/>
  <path id="Path_345467" data-name="Path 345467" d="M79.225,33.163,66.316,46.1,53.47,33.258l7.2-7.2H72.154s7.847,7.894,7.072,7.1" transform="translate(31.121 15.168)" fill="#b1b3b5"/>
</svg>
