<svg xmlns="http://www.w3.org/2000/svg" width="153.929" height="137" viewBox="0 0 153.929 137">
  <g id="diamond_1_" data-name="diamond (1)" transform="translate(0 -28.154)">
    <path id="Path_345790" data-name="Path 345790" d="M33.448,102.8,51.564,71.42,34.772,43.385,0,102.8Z" transform="translate(0 -10.652)" fill="#fff"/>
    <path id="Path_345791" data-name="Path 345791" d="M141.505,28.154l17.107,28.561h35.225L211.07,28.154Z" transform="translate(-98.963)" fill="#fff"/>
    <path id="Path_345792" data-name="Path 345792" d="M190.795,153.153H155.089l-17.852,30.92,17.852,30.92h35.705l17.853-30.92Z" transform="translate(-95.978 -87.419)" fill="#f5cb9b"/>
    <path id="Path_345793" data-name="Path 345793" d="M193.968,388.847H158.263l-16.489,28.561h68.682Z" transform="translate(-99.151 -252.254)" fill="#fff"/>
    <path id="Path_345794" data-name="Path 345794" d="M341.46,73.348l17.823,30.87h33.448l-34.419-58.8Z" transform="translate(-238.803 -12.073)" fill="#fff"/>
    <path id="Path_345795" data-name="Path 345795" d="M51.3,301.92,33.448,271H0l34.812,59.481Z" transform="translate(0 -169.836)" fill="#fff"/>
    <path id="Path_345796" data-name="Path 345796" d="M359.215,271l-17.853,30.92,16.489,28.561L392.663,271Z" transform="translate(-238.734 -169.836)" fill="#fff"/>
  </g>
</svg>
