<svg id="Group_205868" data-name="Group 205868" xmlns="http://www.w3.org/2000/svg" xmlns:xlink="http://www.w3.org/1999/xlink" width="35.447" height="35.485" viewBox="0 0 35.447 35.485">
  <defs>
    <clipPath id="clip-path">
      <rect id="Rectangle_186526" data-name="Rectangle 186526" width="35.447" height="35.485" fill="#f5cb9b"/>
    </clipPath>
  </defs>
  <g id="Group_205867" data-name="Group 205867" clip-path="url(#clip-path)">
    <path id="Path_345826" data-name="Path 345826" d="M17.658,35.462c-4.592,0-9.185-.049-13.776.022A3.73,3.73,0,0,1,0,31.61c.076-1.924.062-3.854,0-5.779A3.668,3.668,0,0,1,3.831,22.02c1.333.059,1.16.179,1.162-1.18Q5,14.569,5,8.3c0-1.262.118-1.13-1.092-1.107A3.708,3.708,0,0,1,1.2,6.268,3.421,3.421,0,0,1,.162,2.6,3.432,3.432,0,0,1,3.207.043,5.427,5.427,0,0,1,3.979,0q13.8,0,27.605,0a3.6,3.6,0,0,1,.607,7.17,9.659,9.659,0,0,1-1.186,0c-.44-.029-.573.169-.567.578.015,1.118.007,2.236.007,3.355,0,3.423.011,6.847-.011,10.27,0,.532.166.7.681.663a4.2,4.2,0,0,1,2.407.4,3.2,3.2,0,0,1,1.846,2.684c.079,2.353.106,4.714.01,7.065a3.418,3.418,0,0,1-3.53,3.262c-1.376.017-2.752,0-4.128,0H17.658m.044-1.419v0q6.993,0,13.986,0a2.182,2.182,0,0,0,2.342-2.311q.018-2.968,0-5.936a2.17,2.17,0,0,0-2.349-2.351q-13.934-.008-27.869,0a2.166,2.166,0,0,0-2.383,2.364c-.019,1.979-.014,3.957,0,5.936a2.477,2.477,0,0,0,.193,1,2.1,2.1,0,0,0,2.045,1.3q7.019-.009,14.038,0m-2.235-16.93c-1.751-1.962-1.847-2.074-2.052-3.2a4.077,4.077,0,0,1,.968-3.555,4.264,4.264,0,0,1,5.857-.617,4.086,4.086,0,0,1,1.64,2.715,4.521,4.521,0,0,1-2.154,4.588c.766.065,1.482.059,2.2.065a5.115,5.115,0,0,1,5.038,3.808c.108.365.126.876.374,1.048.271.188.763.04,1.155.075.445.04.558-.165.558-.573q-.013-6.864,0-13.728c0-.422-.138-.562-.568-.562Q17.8,7.193,7.118,7.185c-.706,0-.709.005-.709.719,0,4.249-.01,8.5,0,12.748.005,1.647-.276,1.34,1.433,1.389.362.01.462-.147.5-.479a4.942,4.942,0,0,1,1.494-2.985,5,5,0,0,1,3.58-1.463c.681,0,1.361,0,2.042,0M17.729,5.779V5.772q6.939,0,13.879-.007a2.9,2.9,0,0,0,1.056-.16A2.1,2.1,0,0,0,33.969,3.19,2.192,2.192,0,0,0,31.7,1.412q-13.982-.007-27.964,0A2.188,2.188,0,1,0,3.8,5.779q6.965,0,13.931,0m-.034,16.256q3.689,0,7.378,0c.624,0,.717-.131.544-.742a3.725,3.725,0,0,0-3.669-2.767q-4.231-.009-8.462,0A3.748,3.748,0,0,0,9.81,21.352c-.153.556-.064.68.507.68q3.689,0,7.378,0m-.054-5.991a2.885,2.885,0,1,0-.09-5.77,2.885,2.885,0,0,0,.09,5.77" transform="translate(0 0)" fill="#f5cb9b"/>
  </g>
</svg>
