<svg xmlns="http://www.w3.org/2000/svg" width="26.617" height="35.885" viewBox="0 0 26.617 35.885">
  <g id="pin" transform="translate(-47.88 0.2)">
    <g id="Group_205864" data-name="Group 205864" transform="translate(48.08)">
      <g id="Group_205863" data-name="Group 205863" transform="translate(0)">
        <path id="Path_345820" data-name="Path 345820" d="M61.188,0A13.123,13.123,0,0,0,48.08,13.108a15.124,15.124,0,0,0,1.112,5.047,21.14,21.14,0,0,0,1.515,2.834l8.988,13.618a1.709,1.709,0,0,0,2.987,0L71.67,20.989a21.051,21.051,0,0,0,1.515-2.834A15.12,15.12,0,0,0,74.3,13.108,13.123,13.123,0,0,0,61.188,0ZM71.764,17.557a19.371,19.371,0,0,1-1.381,2.583L61.394,33.759c-.177.269-.234.269-.411,0L51.995,20.14a19.379,19.379,0,0,1-1.381-2.584,13.728,13.728,0,0,1-.992-4.448,11.566,11.566,0,1,1,23.132,0A13.739,13.739,0,0,1,71.764,17.557Z" transform="translate(-48.08)" fill="#f5cb9b" stroke="#f5cb9b" stroke-width="0.4"/>
        <path id="Path_345821" data-name="Path 345821" d="M119.02,64.008a6.94,6.94,0,1,0,6.94,6.94A6.948,6.948,0,0,0,119.02,64.008Zm0,12.337a5.4,5.4,0,1,1,5.4-5.4A5.4,5.4,0,0,1,119.02,76.345Z" transform="translate(-105.911 -57.839)" fill="#f5cb9b" stroke="#f5cb9b" stroke-width="0.4"/>
      </g>
    </g>
  </g>
</svg>
