<svg id="calendar_1_" data-name="calendar (1)" xmlns="http://www.w3.org/2000/svg" width="35.485" height="35.485" viewBox="0 0 35.485 35.485">
  <path id="Path_345825" data-name="Path 345825" d="M30.911,2.772H27.723V1.109a1.109,1.109,0,1,0-2.218,0V2.772H9.98V1.109a1.109,1.109,0,0,0-2.218,0V2.772H4.574A4.579,4.579,0,0,0,0,7.347V30.911a4.579,4.579,0,0,0,4.574,4.574H30.911a4.579,4.579,0,0,0,4.574-4.574V7.347A4.579,4.579,0,0,0,30.911,2.772ZM4.574,4.99H7.762V6.1a1.109,1.109,0,0,0,2.218,0V4.99H25.5V6.1a1.109,1.109,0,1,0,2.218,0V4.99h3.188a2.359,2.359,0,0,1,2.356,2.356V9.98H2.218V7.347A2.359,2.359,0,0,1,4.574,4.99ZM30.911,33.267H4.574a2.359,2.359,0,0,1-2.356-2.356V12.2H33.267V30.911A2.359,2.359,0,0,1,30.911,33.267Z" fill="#f5cb9b"/>
</svg>
