<svg xmlns="http://www.w3.org/2000/svg" xmlns:xlink="http://www.w3.org/1999/xlink" width="249.405" height="293.037" viewBox="0 0 249.405 293.037">
  <defs>
    <linearGradient id="linear-gradient" x1="0.717" y1="0.074" x2="0.263" y2="0.68" gradientUnits="objectBoundingBox">
      <stop offset="0" stop-color="#fff"/>
      <stop offset="1" stop-color="#fff" stop-opacity="0"/>
    </linearGradient>
  </defs>
  <path id="Path_345841" data-name="Path 345841" d="M206.257,216.45c1.318,7.444,2.833,14.954,4.611,22.4a118.5,118.5,0,0,0,7.18,21.41,71.884,71.884,0,0,0,12.187,18.577,56.349,56.349,0,0,0,19.17,13.57q-26.778,2.372-42.16-2.174c-10.277-3.03-18.05-7.444-23.386-13.175a44.352,44.352,0,0,1-10.8-19.367c-1.845-7.18-3.36-14.1-4.414-20.751-1.318-7.444-2.569-14.493-3.821-21.212-1.186-6.653-2.569-12.978-4.018-18.972S157.64,184.9,155.8,179.164a127.834,127.834,0,0,0-7.18-17.391,70.939,70.939,0,0,0-13.175-18.182,42.782,42.782,0,0,0-16.008-10.211,32.949,32.949,0,0,0-22.4,1.581,56.585,56.585,0,0,0-17.984,11.989q-7.609,7.609-15.613,16.008v97.957A35.414,35.414,0,0,0,82.213,292.47H0a45.019,45.019,0,0,0,17-16.4,44.1,44.1,0,0,0,6.588-23.583V40.167A44.26,44.26,0,0,0,17,16.583,45.019,45.019,0,0,0,0,.18H82.345a38.238,38.238,0,0,0-13.57,12.978,33.751,33.751,0,0,0-5.2,18.577V159.27L173.055,42.538c5.6-6.126,7.707-13.373,6.39-21.8Q177.469,8.184,163.438.18h70.75A65.944,65.944,0,0,0,222.2,4.989a133.845,133.845,0,0,0-12.582,7.18,121.368,121.368,0,0,0-11.4,8.366,77.216,77.216,0,0,0-8.366,7.971L87.549,137.2a53.182,53.182,0,0,1,18.972-9.815,71.742,71.742,0,0,1,22-2.569,75.628,75.628,0,0,1,22.4,4.216,80.58,80.58,0,0,1,20.158,10.211,65.8,65.8,0,0,1,14.756,15.81,99.708,99.708,0,0,1,10.013,19.367,132.5,132.5,0,0,1,6.192,21.212c1.449,7.18,2.833,14.1,4.216,20.751" transform="translate(0 -0.18)" opacity="0.1" fill="url(#linear-gradient)"/>
</svg>
