<svg xmlns="http://www.w3.org/2000/svg" width="136.701" height="137" viewBox="0 0 136.701 137">
  <g id="filter" transform="translate(-2.066 -2)">
    <path id="Path_345481" data-name="Path 345481" d="M40.885,48.249V44.482A53.82,53.82,0,0,1,18.427,14a44.035,44.035,0,0,0,27.35,78.284A42.763,42.763,0,0,0,60.456,89.74,53.82,53.82,0,0,1,40.885,48.249Z" transform="translate(0 46.713)" fill="#f5cb9b"/>
    <path id="Path_345482" data-name="Path 345482" d="M100.07,45.656A44.524,44.524,0,0,0,85.391,15.37L83.385,14A53.82,53.82,0,0,1,51.142,49.472a53.82,53.82,0,0,1-39.142,0v2.691A43.252,43.252,0,0,0,25.9,80.492a42.811,42.811,0,0,0,5.48,4.355A44.035,44.035,0,0,0,98.993,57.154a45.209,45.209,0,0,0,1.076-11.5Z" transform="translate(38.67 46.713)" fill="#fff"/>
    <path id="Path_345483" data-name="Path 345483" d="M94.14,55.086a44.053,44.053,0,0,1-86.21,0A46.187,46.187,0,0,1,7,46.035a44.035,44.035,0,0,1,88.07,0A46.19,46.19,0,0,1,94.14,55.086Z" transform="translate(19.207 0)"/>
    <path id="Path_345484" data-name="Path 345484" d="M95.07,46.035a46.188,46.188,0,0,1-.93,9.052,44.053,44.053,0,0,1-86.21,0A46.187,46.187,0,0,1,7,46.035a44.035,44.035,0,0,1,88.07,0Z" transform="translate(19.207 0)" fill="#fff"/>
  </g>
</svg>
