<svg xmlns="http://www.w3.org/2000/svg" xmlns:xlink="http://www.w3.org/1999/xlink" width="534.527" height="11.008" viewBox="0 0 534.527 11.008">
  <defs>
    <linearGradient id="linear-gradient" x1="0.237" y1="1" x2="0.759" y2="1" gradientUnits="objectBoundingBox">
      <stop offset="0" stop-color="#f5cb9b" stop-opacity="0"/>
      <stop offset="0.443" stop-color="#f5cb9b"/>
      <stop offset="1" stop-color="#f5cb9b" stop-opacity="0"/>
    </linearGradient>
    <clipPath id="clip-path">
      <path id="Path_345831" data-name="Path 345831" d="M26.188,0,24.61,2.415a1.311,1.311,0,0,0,.153,1.624L26.188,5.5l1.425-1.465a1.312,1.312,0,0,0,.153-1.624Z" transform="translate(-24.398)" fill="#f5cb9b"/>
    </clipPath>
    <clipPath id="clip-path-2">
      <path id="Path_345832" data-name="Path 345832" d="M24.764,17.5a1.311,1.311,0,0,0-.153,1.624l1.578,2.415,1.578-2.415a1.312,1.312,0,0,0-.153-1.624l-1.425-1.466Z" transform="translate(-24.398 -16.032)" fill="#f5cb9b"/>
    </clipPath>
    <clipPath id="clip-path-3">
      <path id="Path_345833" data-name="Path 345833" d="M4.476,7.484,2.225,9.8,1.055,8.593a.547.547,0,0,0-.88.082A.886.886,0,0,0,0,9.2v0a.883.883,0,0,0,.878.889A.883.883,0,0,0,0,10.984v0a.886.886,0,0,0,.175.527h0a.547.547,0,0,0,.88.082l1.17-1.207,2.252,2.316a1.6,1.6,0,0,0,2.144.151l3.546-2.763L6.62,7.332a1.6,1.6,0,0,0-2.144.151" transform="translate(0 -6.991)" fill="#f5cb9b"/>
    </clipPath>
    <clipPath id="clip-path-4">
      <path id="Path_345834" data-name="Path 345834" d="M33.159,7.332l-3.546,2.763,3.546,2.763a1.6,1.6,0,0,0,2.144-.151l2.4-2.473.941,1.282a.547.547,0,0,0,.88.082.885.885,0,0,0-.62-1.5.885.885,0,0,0,.62-1.5.547.547,0,0,0-.88.082l-.941,1.282L35.3,7.484a1.6,1.6,0,0,0-2.144-.151" transform="translate(-29.613 -6.991)" fill="#f5cb9b"/>
    </clipPath>
  </defs>
  <g id="Group_205888" data-name="Group 205888" transform="translate(-553 -1333.662)">
    <path id="Path_345789" data-name="Path 345789" d="M534.2.675H.326A.332.332,0,0,1,0,.338.332.332,0,0,1,.326,0H534.2a.332.332,0,0,1,.326.338A.332.332,0,0,1,534.2.675Z" transform="translate(1087.527 1339.504) rotate(180)" fill="url(#linear-gradient)"/>
    <g id="Group_205887" data-name="Group 205887" transform="translate(810.112 1333.662)">
      <g id="Group_205880" data-name="Group 205880" transform="translate(8.376)">
        <g id="Group_205879" data-name="Group 205879" clip-path="url(#clip-path)">
          <rect id="Rectangle_186539" data-name="Rectangle 186539" width="3.821" height="5.504" transform="translate(-0.12 0)" fill="#f5cb9b"/>
        </g>
      </g>
      <g id="Group_205882" data-name="Group 205882" transform="translate(8.376 5.504)">
        <g id="Group_205881" data-name="Group 205881" clip-path="url(#clip-path-2)">
          <rect id="Rectangle_186540" data-name="Rectangle 186540" width="3.821" height="5.504" transform="translate(-0.12 0)" fill="#f5cb9b"/>
        </g>
      </g>
      <g id="Group_205884" data-name="Group 205884" transform="translate(0 2.4)">
        <g id="Group_205883" data-name="Group 205883" clip-path="url(#clip-path-3)">
          <rect id="Rectangle_186541" data-name="Rectangle 186541" width="10.167" height="6.374" transform="translate(0 0)" fill="#f5cb9b"/>
        </g>
      </g>
      <g id="Group_205886" data-name="Group 205886" transform="translate(10.167 2.4)">
        <g id="Group_205885" data-name="Group 205885" clip-path="url(#clip-path-4)">
          <rect id="Rectangle_186542" data-name="Rectangle 186542" width="10.456" height="6.374" transform="translate(0 0)" fill="#f5cb9b"/>
        </g>
      </g>
    </g>
  </g>
</svg>
