<svg id="Group_6842" data-name="Group 6842" xmlns="http://www.w3.org/2000/svg" width="92.032" height="91.361" viewBox="0 0 92.032 91.361">
  <ellipse id="Ellipse_22" data-name="Ellipse 22" cx="46.016" cy="45.68" rx="46.016" ry="45.68" fill="#fff"/>
  <g id="Group_6841" data-name="Group 6841" transform="translate(10.201 9.372)">
    <g id="Group_6840" data-name="Group 6840">
      <g id="Group_6839" data-name="Group 6839">
        <path id="Path_207" data-name="Path 207" d="M35.828,0A35.828,35.828,0,1,0,71.657,35.828,35.828,35.828,0,0,0,35.828,0ZM50.917,36.97a2.559,2.559,0,0,1-1.149,1.149v.013L29.295,48.368a2.559,2.559,0,0,1-3.7-2.3V25.592a2.559,2.559,0,0,1,3.7-2.291L49.768,33.538A2.559,2.559,0,0,1,50.917,36.97Z" fill="#02254b"/>
      </g>
    </g>
  </g>
</svg>
